<mxfile host="app.diagrams.net" modified="2024-03-03T14:07:25.146Z" agent="Mozilla/5.0 (Windows NT 10.0; Win64; x64) AppleWebKit/537.36 (KHTML, like Gecko) Chrome/122.0.0.0 Safari/537.36" etag="klfh4D44bRz-nbL83YVh" version="24.0.1" type="browser">
  <diagram name="Page-1" id="FV5z33RX-E6zu7lfxonT">
    <mxGraphModel dx="2298" dy="1020" grid="1" gridSize="10" guides="1" tooltips="1" connect="1" arrows="1" fold="1" page="1" pageScale="1" pageWidth="850" pageHeight="1100" math="0" shadow="0">
      <root>
        <mxCell id="0" />
        <mxCell id="1" parent="0" />
        <mxCell id="bcZ2yvEfzPjEkfK1NhTe-3" value="" style="rounded=0;whiteSpace=wrap;html=1;" parent="1" vertex="1">
          <mxGeometry x="90" y="130" width="890" height="3200" as="geometry" />
        </mxCell>
        <mxCell id="bcZ2yvEfzPjEkfK1NhTe-4" value="Nav Bar" style="rounded=1;whiteSpace=wrap;html=1;" parent="1" vertex="1">
          <mxGeometry x="90" y="130" width="890" height="70" as="geometry" />
        </mxCell>
        <mxCell id="bcZ2yvEfzPjEkfK1NhTe-13" value="" style="group" parent="1" vertex="1" connectable="0">
          <mxGeometry x="90" y="410" width="890" height="150" as="geometry" />
        </mxCell>
        <mxCell id="bcZ2yvEfzPjEkfK1NhTe-9" value="" style="rounded=1;whiteSpace=wrap;html=1;" parent="bcZ2yvEfzPjEkfK1NhTe-13" vertex="1">
          <mxGeometry width="890" height="150" as="geometry" />
        </mxCell>
        <mxCell id="bcZ2yvEfzPjEkfK1NhTe-10" value="Event Details" style="rounded=0;whiteSpace=wrap;html=1;" parent="bcZ2yvEfzPjEkfK1NhTe-13" vertex="1">
          <mxGeometry x="20" y="60" width="340" height="80" as="geometry" />
        </mxCell>
        <mxCell id="bcZ2yvEfzPjEkfK1NhTe-11" value="Event Title" style="rounded=0;whiteSpace=wrap;html=1;" parent="bcZ2yvEfzPjEkfK1NhTe-13" vertex="1">
          <mxGeometry x="20" y="10" width="340" height="40" as="geometry" />
        </mxCell>
        <mxCell id="bcZ2yvEfzPjEkfK1NhTe-12" value="Upcoming Event" style="rounded=1;whiteSpace=wrap;html=1;" parent="bcZ2yvEfzPjEkfK1NhTe-13" vertex="1">
          <mxGeometry x="510" y="10" width="360" height="130" as="geometry" />
        </mxCell>
        <mxCell id="bcZ2yvEfzPjEkfK1NhTe-14" value="" style="group" parent="1" vertex="1" connectable="0">
          <mxGeometry x="90" y="210" width="890" height="190" as="geometry" />
        </mxCell>
        <mxCell id="bcZ2yvEfzPjEkfK1NhTe-5" value="&lt;font style=&quot;font-size: 24px;&quot;&gt;Poster&lt;/font&gt;" style="rounded=1;whiteSpace=wrap;html=1;" parent="bcZ2yvEfzPjEkfK1NhTe-14" vertex="1">
          <mxGeometry width="890" height="190" as="geometry" />
        </mxCell>
        <mxCell id="bcZ2yvEfzPjEkfK1NhTe-6" value="Event Details" style="rounded=1;whiteSpace=wrap;html=1;" parent="bcZ2yvEfzPjEkfK1NhTe-14" vertex="1">
          <mxGeometry x="300" y="130" width="140" height="40" as="geometry" />
        </mxCell>
        <mxCell id="bcZ2yvEfzPjEkfK1NhTe-7" value="Nominate Now" style="rounded=1;whiteSpace=wrap;html=1;" parent="bcZ2yvEfzPjEkfK1NhTe-14" vertex="1">
          <mxGeometry x="470" y="130" width="140" height="40" as="geometry" />
        </mxCell>
        <mxCell id="bcZ2yvEfzPjEkfK1NhTe-16" value="" style="group" parent="1" vertex="1" connectable="0">
          <mxGeometry x="90" y="580" width="890" height="320" as="geometry" />
        </mxCell>
        <mxCell id="bcZ2yvEfzPjEkfK1NhTe-17" value="" style="rounded=1;whiteSpace=wrap;html=1;" parent="bcZ2yvEfzPjEkfK1NhTe-16" vertex="1">
          <mxGeometry width="890" height="320" as="geometry" />
        </mxCell>
        <mxCell id="bcZ2yvEfzPjEkfK1NhTe-21" value="Selection Process" style="rounded=0;whiteSpace=wrap;html=1;" parent="bcZ2yvEfzPjEkfK1NhTe-16" vertex="1">
          <mxGeometry x="260" y="10" width="350" height="40" as="geometry" />
        </mxCell>
        <mxCell id="bcZ2yvEfzPjEkfK1NhTe-22" value="&lt;span style=&quot;color: rgba(0, 0, 0, 0); font-family: monospace; font-size: 0px; text-align: start; text-wrap: nowrap;&quot;&gt;%3CmxGraphModel%3E%3Croot%3E%3CmxCell%20id%3D%220%22%2F%3E%3CmxCell%20id%3D%221%22%20parent%3D%220%22%2F%3E%3CmxCell%20id%3D%222%22%20value%3D%22%22%20style%3D%22group%22%20vertex%3D%221%22%20connectable%3D%220%22%20parent%3D%221%22%3E%3CmxGeometry%20x%3D%2290%22%20y%3D%22580%22%20width%3D%22890%22%20height%3D%22320%22%20as%3D%22geometry%22%2F%3E%3C%2FmxCell%3E%3CmxCell%20id%3D%223%22%20value%3D%22%22%20style%3D%22rounded%3D1%3BwhiteSpace%3Dwrap%3Bhtml%3D1%3B%22%20vertex%3D%221%22%20parent%3D%222%22%3E%3CmxGeometry%20width%3D%22890%22%20height%3D%22320%22%20as%3D%22geometry%22%2F%3E%3C%2FmxCell%3E%3CmxCell%20id%3D%224%22%20value%3D%22%22%20style%3D%22rounded%3D0%3BwhiteSpace%3Dwrap%3Bhtml%3D1%3B%22%20vertex%3D%221%22%20parent%3D%222%22%3E%3CmxGeometry%20x%3D%22260%22%20y%3D%2210%22%20width%3D%22350%22%20height%3D%2240%22%20as%3D%22geometry%22%2F%3E%3C%2FmxCell%3E%3CmxCell%20id%3D%225%22%20value%3D%22%22%20style%3D%22whiteSpace%3Dwrap%3Bhtml%3D1%3Baspect%3Dfixed%3B%22%20vertex%3D%221%22%20parent%3D%222%22%3E%3CmxGeometry%20x%3D%2280%22%20y%3D%2280%22%20width%3D%22220%22%20height%3D%22220%22%20as%3D%22geometry%22%2F%3E%3C%2FmxCell%3E%3C%2Froot%3E%3C%2FmxGraphModel%3E&lt;/span&gt;" style="whiteSpace=wrap;html=1;aspect=fixed;" parent="bcZ2yvEfzPjEkfK1NhTe-16" vertex="1">
          <mxGeometry x="80" y="80" width="220" height="220" as="geometry" />
        </mxCell>
        <mxCell id="bcZ2yvEfzPjEkfK1NhTe-27" value="&lt;span style=&quot;color: rgba(0, 0, 0, 0); font-family: monospace; font-size: 0px; text-align: start; text-wrap: nowrap;&quot;&gt;%3CmxGraphModel%3E%3Croot%3E%3CmxCell%20id%3D%220%22%2F%3E%3CmxCell%20id%3D%221%22%20parent%3D%220%22%2F%3E%3CmxCell%20id%3D%222%22%20value%3D%22%22%20style%3D%22group%22%20vertex%3D%221%22%20connectable%3D%220%22%20parent%3D%221%22%3E%3CmxGeometry%20x%3D%2290%22%20y%3D%22580%22%20width%3D%22890%22%20height%3D%22320%22%20as%3D%22geometry%22%2F%3E%3C%2FmxCell%3E%3CmxCell%20id%3D%223%22%20value%3D%22%22%20style%3D%22rounded%3D1%3BwhiteSpace%3Dwrap%3Bhtml%3D1%3B%22%20vertex%3D%221%22%20parent%3D%222%22%3E%3CmxGeometry%20width%3D%22890%22%20height%3D%22320%22%20as%3D%22geometry%22%2F%3E%3C%2FmxCell%3E%3CmxCell%20id%3D%224%22%20value%3D%22%22%20style%3D%22rounded%3D0%3BwhiteSpace%3Dwrap%3Bhtml%3D1%3B%22%20vertex%3D%221%22%20parent%3D%222%22%3E%3CmxGeometry%20x%3D%22260%22%20y%3D%2210%22%20width%3D%22350%22%20height%3D%2240%22%20as%3D%22geometry%22%2F%3E%3C%2FmxCell%3E%3CmxCell%20id%3D%225%22%20value%3D%22%22%20style%3D%22whiteSpace%3Dwrap%3Bhtml%3D1%3Baspect%3Dfixed%3B%22%20vertex%3D%221%22%20parent%3D%222%22%3E%3CmxGeometry%20x%3D%2280%22%20y%3D%2280%22%20width%3D%22220%22%20height%3D%22220%22%20as%3D%22geometry%22%2F%3E%3C%2FmxCell%3E%3C%2Froot%3E%3C%2FmxGraphModel%3E&lt;/span&gt;" style="whiteSpace=wrap;html=1;aspect=fixed;" parent="bcZ2yvEfzPjEkfK1NhTe-16" vertex="1">
          <mxGeometry x="340" y="80" width="220" height="220" as="geometry" />
        </mxCell>
        <mxCell id="bcZ2yvEfzPjEkfK1NhTe-28" value="&lt;span style=&quot;color: rgba(0, 0, 0, 0); font-family: monospace; font-size: 0px; text-align: start; text-wrap: nowrap;&quot;&gt;%3CmxGraphModel%3E%3Croot%3E%3CmxCell%20id%3D%220%22%2F%3E%3CmxCell%20id%3D%221%22%20parent%3D%220%22%2F%3E%3CmxCell%20id%3D%222%22%20value%3D%22%22%20style%3D%22group%22%20vertex%3D%221%22%20connectable%3D%220%22%20parent%3D%221%22%3E%3CmxGeometry%20x%3D%2290%22%20y%3D%22580%22%20width%3D%22890%22%20height%3D%22320%22%20as%3D%22geometry%22%2F%3E%3C%2FmxCell%3E%3CmxCell%20id%3D%223%22%20value%3D%22%22%20style%3D%22rounded%3D1%3BwhiteSpace%3Dwrap%3Bhtml%3D1%3B%22%20vertex%3D%221%22%20parent%3D%222%22%3E%3CmxGeometry%20width%3D%22890%22%20height%3D%22320%22%20as%3D%22geometry%22%2F%3E%3C%2FmxCell%3E%3CmxCell%20id%3D%224%22%20value%3D%22%22%20style%3D%22rounded%3D0%3BwhiteSpace%3Dwrap%3Bhtml%3D1%3B%22%20vertex%3D%221%22%20parent%3D%222%22%3E%3CmxGeometry%20x%3D%22260%22%20y%3D%2210%22%20width%3D%22350%22%20height%3D%2240%22%20as%3D%22geometry%22%2F%3E%3C%2FmxCell%3E%3CmxCell%20id%3D%225%22%20value%3D%22%22%20style%3D%22whiteSpace%3Dwrap%3Bhtml%3D1%3Baspect%3Dfixed%3B%22%20vertex%3D%221%22%20parent%3D%222%22%3E%3CmxGeometry%20x%3D%2280%22%20y%3D%2280%22%20width%3D%22220%22%20height%3D%22220%22%20as%3D%22geometry%22%2F%3E%3C%2FmxCell%3E%3C%2Froot%3E%3C%2FmxGraphModel%3E&lt;/span&gt;" style="whiteSpace=wrap;html=1;aspect=fixed;" parent="bcZ2yvEfzPjEkfK1NhTe-16" vertex="1">
          <mxGeometry x="600" y="80" width="220" height="220" as="geometry" />
        </mxCell>
        <mxCell id="bcZ2yvEfzPjEkfK1NhTe-33" value="&lt;font style=&quot;font-size: 24px;&quot;&gt;Home Page&lt;/font&gt;" style="rounded=1;whiteSpace=wrap;html=1;" parent="1" vertex="1">
          <mxGeometry x="370" y="60" width="340" height="60" as="geometry" />
        </mxCell>
        <mxCell id="bcZ2yvEfzPjEkfK1NhTe-34" value="" style="rounded=0;whiteSpace=wrap;html=1;" parent="1" vertex="1">
          <mxGeometry x="1180" y="130" width="890" height="1310" as="geometry" />
        </mxCell>
        <mxCell id="bcZ2yvEfzPjEkfK1NhTe-35" value="&lt;font style=&quot;font-size: 24px;&quot;&gt;About US&lt;/font&gt;" style="rounded=1;whiteSpace=wrap;html=1;" parent="1" vertex="1">
          <mxGeometry x="1460" y="50" width="340" height="60" as="geometry" />
        </mxCell>
        <mxCell id="bcZ2yvEfzPjEkfK1NhTe-36" value="" style="rounded=1;whiteSpace=wrap;html=1;" parent="1" vertex="1">
          <mxGeometry x="1180" y="130" width="890" height="70" as="geometry" />
        </mxCell>
        <mxCell id="bcZ2yvEfzPjEkfK1NhTe-37" value="" style="group" parent="1" vertex="1" connectable="0">
          <mxGeometry x="1180" y="330" width="890" height="180" as="geometry" />
        </mxCell>
        <mxCell id="bcZ2yvEfzPjEkfK1NhTe-29" value="" style="rounded=1;whiteSpace=wrap;html=1;" parent="bcZ2yvEfzPjEkfK1NhTe-37" vertex="1">
          <mxGeometry width="890" height="180" as="geometry" />
        </mxCell>
        <mxCell id="bcZ2yvEfzPjEkfK1NhTe-30" value="Where Recoginition Begins" style="rounded=0;whiteSpace=wrap;html=1;" parent="bcZ2yvEfzPjEkfK1NhTe-37" vertex="1">
          <mxGeometry x="290" y="10" width="320" height="60" as="geometry" />
        </mxCell>
        <mxCell id="bcZ2yvEfzPjEkfK1NhTe-31" value="" style="rounded=1;whiteSpace=wrap;html=1;" parent="bcZ2yvEfzPjEkfK1NhTe-37" vertex="1">
          <mxGeometry x="190" y="100" width="205" height="60" as="geometry" />
        </mxCell>
        <mxCell id="bcZ2yvEfzPjEkfK1NhTe-32" value="" style="rounded=1;whiteSpace=wrap;html=1;" parent="bcZ2yvEfzPjEkfK1NhTe-37" vertex="1">
          <mxGeometry x="540" y="100" width="205" height="60" as="geometry" />
        </mxCell>
        <mxCell id="bcZ2yvEfzPjEkfK1NhTe-38" value="" style="rounded=1;whiteSpace=wrap;html=1;" parent="1" vertex="1">
          <mxGeometry x="90" y="920" width="890" height="680" as="geometry" />
        </mxCell>
        <mxCell id="bcZ2yvEfzPjEkfK1NhTe-39" value="&lt;span id=&quot;docs-internal-guid-0e8eb007-7fff-5709-1cf1-edb22a001e74&quot;&gt;&lt;p style=&quot;line-height:1.38;margin-top:0pt;margin-bottom:0pt;&quot; dir=&quot;ltr&quot;&gt;&lt;span style=&quot;font-size: 15pt; font-family: Arial, sans-serif; color: rgb(34, 34, 34); font-weight: 700; font-variant-numeric: normal; font-variant-east-asian: normal; font-variant-alternates: normal; font-variant-position: normal; vertical-align: baseline; white-space-collapse: preserve;&quot;&gt;Unlocking Opportunities for Your Business:&lt;/span&gt;&lt;/p&gt;&lt;div&gt;&lt;span style=&quot;font-size: 15pt; font-family: Arial, sans-serif; color: rgb(34, 34, 34); font-weight: 700; font-variant-numeric: normal; font-variant-east-asian: normal; font-variant-alternates: normal; font-variant-position: normal; vertical-align: baseline; white-space-collapse: preserve;&quot;&gt;&lt;br&gt;&lt;/span&gt;&lt;/div&gt;&lt;/span&gt;" style="rounded=0;whiteSpace=wrap;html=1;" parent="1" vertex="1">
          <mxGeometry x="300" y="940" width="470" height="60" as="geometry" />
        </mxCell>
        <mxCell id="bcZ2yvEfzPjEkfK1NhTe-40" value="" style="rounded=1;whiteSpace=wrap;html=1;" parent="1" vertex="1">
          <mxGeometry x="135" y="1020" width="810" height="60" as="geometry" />
        </mxCell>
        <mxCell id="bcZ2yvEfzPjEkfK1NhTe-41" value="" style="rounded=1;whiteSpace=wrap;html=1;" parent="1" vertex="1">
          <mxGeometry x="130" y="1110" width="410" height="150" as="geometry" />
        </mxCell>
        <mxCell id="bcZ2yvEfzPjEkfK1NhTe-42" value="" style="rounded=1;whiteSpace=wrap;html=1;" parent="1" vertex="1">
          <mxGeometry x="550" y="1110" width="390" height="150" as="geometry" />
        </mxCell>
        <mxCell id="bcZ2yvEfzPjEkfK1NhTe-43" value="" style="rounded=1;whiteSpace=wrap;html=1;" parent="1" vertex="1">
          <mxGeometry x="130" y="1280" width="410" height="150" as="geometry" />
        </mxCell>
        <mxCell id="bcZ2yvEfzPjEkfK1NhTe-44" value="" style="rounded=1;whiteSpace=wrap;html=1;" parent="1" vertex="1">
          <mxGeometry x="550" y="1280" width="390" height="150" as="geometry" />
        </mxCell>
        <mxCell id="bcZ2yvEfzPjEkfK1NhTe-45" value="" style="rounded=1;whiteSpace=wrap;html=1;" parent="1" vertex="1">
          <mxGeometry x="130" y="1460" width="810" height="60" as="geometry" />
        </mxCell>
        <mxCell id="bcZ2yvEfzPjEkfK1NhTe-73" value="" style="group" parent="1" vertex="1" connectable="0">
          <mxGeometry x="90" y="2760" width="890" height="320" as="geometry" />
        </mxCell>
        <mxCell id="bcZ2yvEfzPjEkfK1NhTe-65" value="" style="rounded=1;whiteSpace=wrap;html=1;" parent="bcZ2yvEfzPjEkfK1NhTe-73" vertex="1">
          <mxGeometry width="890" height="320" as="geometry" />
        </mxCell>
        <mxCell id="bcZ2yvEfzPjEkfK1NhTe-66" value="&lt;h4 style=&quot;box-sizing: border-box; margin-block: 0.5rem 1rem; font-family: Roboto, sans-serif; font-weight: 400; line-height: 1.4em; color: rgb(34, 34, 34); font-size: 16px; padding: 0px; margin: 0px; text-transform: uppercase; background-color: rgb(255, 255, 255);&quot; class=&quot;elementor-heading-title elementor-size-default&quot;&gt;FREQUENTLY ASKED QUESTIONS&lt;/h4&gt;" style="rounded=0;whiteSpace=wrap;html=1;" parent="bcZ2yvEfzPjEkfK1NhTe-73" vertex="1">
          <mxGeometry x="280" y="10" width="330" height="60" as="geometry" />
        </mxCell>
        <mxCell id="bcZ2yvEfzPjEkfK1NhTe-67" value="&lt;font style=&quot;font-size: 19px;&quot;&gt;Accrodian&lt;/font&gt;" style="rounded=0;whiteSpace=wrap;html=1;" parent="bcZ2yvEfzPjEkfK1NhTe-73" vertex="1">
          <mxGeometry x="20" y="90" width="850" height="60" as="geometry" />
        </mxCell>
        <mxCell id="bcZ2yvEfzPjEkfK1NhTe-70" value="&lt;font style=&quot;font-size: 19px;&quot;&gt;Accrodian&lt;/font&gt;" style="rounded=0;whiteSpace=wrap;html=1;" parent="bcZ2yvEfzPjEkfK1NhTe-73" vertex="1">
          <mxGeometry x="20" y="160" width="850" height="60" as="geometry" />
        </mxCell>
        <mxCell id="bcZ2yvEfzPjEkfK1NhTe-71" value="&lt;font style=&quot;font-size: 19px;&quot;&gt;Accrodian&lt;/font&gt;" style="rounded=0;whiteSpace=wrap;html=1;" parent="bcZ2yvEfzPjEkfK1NhTe-73" vertex="1">
          <mxGeometry x="20" y="230" width="850" height="60" as="geometry" />
        </mxCell>
        <mxCell id="bcZ2yvEfzPjEkfK1NhTe-75" value="" style="group" parent="1" vertex="1" connectable="0">
          <mxGeometry x="90" y="1990" width="890" height="350" as="geometry" />
        </mxCell>
        <mxCell id="bcZ2yvEfzPjEkfK1NhTe-46" value="" style="rounded=0;whiteSpace=wrap;html=1;" parent="bcZ2yvEfzPjEkfK1NhTe-75" vertex="1">
          <mxGeometry width="890" height="350" as="geometry" />
        </mxCell>
        <mxCell id="bcZ2yvEfzPjEkfK1NhTe-47" value="&lt;span id=&quot;docs-internal-guid-511e97c8-7fff-c525-de0f-6d929648ccde&quot;&gt;&lt;p style=&quot;line-height:1.38;margin-top:0pt;margin-bottom:0pt;&quot; dir=&quot;ltr&quot;&gt;&lt;span style=&quot;font-size: 14pt; font-family: Arial, sans-serif; color: rgb(34, 34, 34); font-weight: 700; font-variant-numeric: normal; font-variant-east-asian: normal; font-variant-alternates: normal; font-variant-position: normal; vertical-align: baseline; white-space-collapse: preserve;&quot;&gt;Unlock Success: Top 5 Reasons to Enter Tycoons Of Asia Awards&lt;/span&gt;&lt;/p&gt;&lt;div&gt;&lt;span style=&quot;font-size: 14pt; font-family: Arial, sans-serif; color: rgb(34, 34, 34); font-weight: 700; font-variant-numeric: normal; font-variant-east-asian: normal; font-variant-alternates: normal; font-variant-position: normal; vertical-align: baseline; white-space-collapse: preserve;&quot;&gt;&lt;br&gt;&lt;/span&gt;&lt;/div&gt;&lt;/span&gt;" style="rounded=0;whiteSpace=wrap;html=1;" parent="bcZ2yvEfzPjEkfK1NhTe-75" vertex="1">
          <mxGeometry x="90" y="20" width="720" height="70" as="geometry" />
        </mxCell>
        <mxCell id="bcZ2yvEfzPjEkfK1NhTe-49" value="" style="rounded=0;whiteSpace=wrap;html=1;" parent="bcZ2yvEfzPjEkfK1NhTe-75" vertex="1">
          <mxGeometry x="360" y="120" width="160" height="200" as="geometry" />
        </mxCell>
        <mxCell id="bcZ2yvEfzPjEkfK1NhTe-50" value="" style="rounded=0;whiteSpace=wrap;html=1;" parent="bcZ2yvEfzPjEkfK1NhTe-75" vertex="1">
          <mxGeometry x="180" y="120" width="160" height="200" as="geometry" />
        </mxCell>
        <mxCell id="bcZ2yvEfzPjEkfK1NhTe-51" value="" style="rounded=0;whiteSpace=wrap;html=1;" parent="bcZ2yvEfzPjEkfK1NhTe-75" vertex="1">
          <mxGeometry x="10" y="120" width="160" height="200" as="geometry" />
        </mxCell>
        <mxCell id="bcZ2yvEfzPjEkfK1NhTe-52" value="" style="rounded=0;whiteSpace=wrap;html=1;" parent="bcZ2yvEfzPjEkfK1NhTe-75" vertex="1">
          <mxGeometry x="530" y="120" width="160" height="200" as="geometry" />
        </mxCell>
        <mxCell id="bcZ2yvEfzPjEkfK1NhTe-53" value="" style="rounded=0;whiteSpace=wrap;html=1;" parent="bcZ2yvEfzPjEkfK1NhTe-75" vertex="1">
          <mxGeometry x="720" y="120" width="160" height="200" as="geometry" />
        </mxCell>
        <mxCell id="bcZ2yvEfzPjEkfK1NhTe-87" value="" style="group" parent="1" vertex="1" connectable="0">
          <mxGeometry x="90" y="1630" width="900" height="520" as="geometry" />
        </mxCell>
        <mxCell id="bcZ2yvEfzPjEkfK1NhTe-76" value="" style="rounded=0;whiteSpace=wrap;html=1;" parent="bcZ2yvEfzPjEkfK1NhTe-87" vertex="1">
          <mxGeometry width="890" height="300" as="geometry" />
        </mxCell>
        <mxCell id="bcZ2yvEfzPjEkfK1NhTe-77" value="&lt;span id=&quot;docs-internal-guid-7b3855e6-7fff-bc92-7333-8e1a07789451&quot;&gt;&lt;span style=&quot;font-size: 13pt; font-family: Arial, sans-serif; color: rgb(34, 34, 34); font-weight: 700; font-variant-numeric: normal; font-variant-east-asian: normal; font-variant-alternates: normal; font-variant-position: normal; vertical-align: baseline; white-space-collapse: preserve;&quot;&gt;Excellence Award - Decision Analytics&lt;/span&gt;&lt;/span&gt;" style="rounded=0;whiteSpace=wrap;html=1;" parent="bcZ2yvEfzPjEkfK1NhTe-87" vertex="1">
          <mxGeometry x="215" y="20" width="460" height="60" as="geometry" />
        </mxCell>
        <mxCell id="bcZ2yvEfzPjEkfK1NhTe-78" value="" style="ellipse;whiteSpace=wrap;html=1;aspect=fixed;" parent="bcZ2yvEfzPjEkfK1NhTe-87" vertex="1">
          <mxGeometry x="10" y="100" width="140" height="140" as="geometry" />
        </mxCell>
        <mxCell id="bcZ2yvEfzPjEkfK1NhTe-79" value="" style="ellipse;whiteSpace=wrap;html=1;aspect=fixed;" parent="bcZ2yvEfzPjEkfK1NhTe-87" vertex="1">
          <mxGeometry x="160" y="100" width="140" height="140" as="geometry" />
        </mxCell>
        <mxCell id="bcZ2yvEfzPjEkfK1NhTe-80" value="" style="ellipse;whiteSpace=wrap;html=1;aspect=fixed;" parent="bcZ2yvEfzPjEkfK1NhTe-87" vertex="1">
          <mxGeometry x="310" y="100" width="140" height="140" as="geometry" />
        </mxCell>
        <mxCell id="bcZ2yvEfzPjEkfK1NhTe-84" value="" style="ellipse;whiteSpace=wrap;html=1;aspect=fixed;" parent="bcZ2yvEfzPjEkfK1NhTe-87" vertex="1">
          <mxGeometry x="460" y="100" width="140" height="140" as="geometry" />
        </mxCell>
        <mxCell id="bcZ2yvEfzPjEkfK1NhTe-85" value="" style="ellipse;whiteSpace=wrap;html=1;aspect=fixed;" parent="bcZ2yvEfzPjEkfK1NhTe-87" vertex="1">
          <mxGeometry x="610" y="100" width="140" height="140" as="geometry" />
        </mxCell>
        <mxCell id="bcZ2yvEfzPjEkfK1NhTe-86" value="" style="ellipse;whiteSpace=wrap;html=1;aspect=fixed;" parent="bcZ2yvEfzPjEkfK1NhTe-87" vertex="1">
          <mxGeometry x="760" y="100" width="140" height="140" as="geometry" />
        </mxCell>
        <mxCell id="bcZ2yvEfzPjEkfK1NhTe-98" value="&lt;font style=&quot;font-size: 33px;&quot;&gt;Footer&lt;/font&gt;" style="rounded=1;whiteSpace=wrap;html=1;" parent="1" vertex="1">
          <mxGeometry x="90" y="3100" width="890" height="230" as="geometry" />
        </mxCell>
        <mxCell id="bcZ2yvEfzPjEkfK1NhTe-99" value="" style="group" parent="1" vertex="1" connectable="0">
          <mxGeometry x="90" y="2380" width="900" height="300" as="geometry" />
        </mxCell>
        <mxCell id="bcZ2yvEfzPjEkfK1NhTe-100" value="" style="rounded=0;whiteSpace=wrap;html=1;" parent="bcZ2yvEfzPjEkfK1NhTe-99" vertex="1">
          <mxGeometry width="890" height="300" as="geometry" />
        </mxCell>
        <mxCell id="bcZ2yvEfzPjEkfK1NhTe-101" value="&lt;span id=&quot;docs-internal-guid-7b3855e6-7fff-bc92-7333-8e1a07789451&quot;&gt;&lt;span style=&quot;font-size: 13pt; font-family: Arial, sans-serif; color: rgb(34, 34, 34); font-weight: 700; font-variant-numeric: normal; font-variant-east-asian: normal; font-variant-alternates: normal; font-variant-position: normal; vertical-align: baseline; white-space-collapse: preserve;&quot;&gt;Media Coverage&lt;/span&gt;&lt;/span&gt;" style="rounded=0;whiteSpace=wrap;html=1;" parent="bcZ2yvEfzPjEkfK1NhTe-99" vertex="1">
          <mxGeometry x="215" y="20" width="460" height="60" as="geometry" />
        </mxCell>
        <mxCell id="bcZ2yvEfzPjEkfK1NhTe-102" value="" style="group" parent="bcZ2yvEfzPjEkfK1NhTe-99" vertex="1" connectable="0">
          <mxGeometry x="70" y="110" width="740" height="140" as="geometry" />
        </mxCell>
        <mxCell id="bcZ2yvEfzPjEkfK1NhTe-103" value="" style="ellipse;whiteSpace=wrap;html=1;aspect=fixed;" parent="bcZ2yvEfzPjEkfK1NhTe-102" vertex="1">
          <mxGeometry width="140" height="140" as="geometry" />
        </mxCell>
        <mxCell id="bcZ2yvEfzPjEkfK1NhTe-104" value="" style="ellipse;whiteSpace=wrap;html=1;aspect=fixed;" parent="bcZ2yvEfzPjEkfK1NhTe-102" vertex="1">
          <mxGeometry x="150" width="140" height="140" as="geometry" />
        </mxCell>
        <mxCell id="bcZ2yvEfzPjEkfK1NhTe-105" value="&lt;span style=&quot;font-size: 23px;&quot;&gt;Carousel / Dragable&lt;/span&gt;" style="ellipse;whiteSpace=wrap;html=1;aspect=fixed;" parent="bcZ2yvEfzPjEkfK1NhTe-102" vertex="1">
          <mxGeometry x="300" width="140" height="140" as="geometry" />
        </mxCell>
        <mxCell id="bcZ2yvEfzPjEkfK1NhTe-106" value="" style="ellipse;whiteSpace=wrap;html=1;aspect=fixed;" parent="bcZ2yvEfzPjEkfK1NhTe-102" vertex="1">
          <mxGeometry x="600" width="140" height="140" as="geometry" />
        </mxCell>
        <mxCell id="bcZ2yvEfzPjEkfK1NhTe-107" value="" style="ellipse;whiteSpace=wrap;html=1;aspect=fixed;" parent="bcZ2yvEfzPjEkfK1NhTe-102" vertex="1">
          <mxGeometry x="450" width="140" height="140" as="geometry" />
        </mxCell>
      </root>
    </mxGraphModel>
  </diagram>
</mxfile>
